<svg width="18" height="18" viewBox="0 0 18 18" fill="none" xmlns="http://www.w3.org/2000/svg">
<rect width="18" height="18" rx="9" fill="#E5484D"/>
<path d="M9.76758 4.46875L9.62695 10.4863H8.41992L8.27344 4.46875H9.76758ZM8.23242 12.332C8.23242 12.1172 8.30273 11.9375 8.44336 11.793C8.58789 11.6445 8.78711 11.5703 9.04102 11.5703C9.29102 11.5703 9.48828 11.6445 9.63281 11.793C9.77734 11.9375 9.84961 12.1172 9.84961 12.332C9.84961 12.5391 9.77734 12.7168 9.63281 12.8652C9.48828 13.0098 9.29102 13.082 9.04102 13.082C8.78711 13.082 8.58789 13.0098 8.44336 12.8652C8.30273 12.7168 8.23242 12.5391 8.23242 12.332Z" fill="white"/>
</svg>
