<svg width="24" height="24" viewBox="0 0 24 24" fill="none" xmlns="http://www.w3.org/2000/svg">
<path d="M12.8995 11.9966L19.6531 5.23644C19.7723 5.1167 19.8391 4.95463 19.839 4.78571C19.8389 4.6168 19.7719 4.45481 19.6525 4.33524C19.4137 4.09764 18.9931 4.09644 18.7519 4.33644L12.0001 11.0966L5.24595 4.33464C5.00595 4.09764 4.58535 4.09884 4.34655 4.33584C4.28727 4.39487 4.24035 4.46512 4.20852 4.54249C4.17669 4.61985 4.16058 4.70278 4.16115 4.78644C4.16115 4.95684 4.22715 5.11644 4.34655 5.23464L11.1001 11.996L4.34715 18.758C4.22798 18.878 4.16124 19.0403 4.16158 19.2093C4.16192 19.3784 4.2293 19.5404 4.34895 19.6598C4.46475 19.7744 4.62855 19.8404 4.79775 19.8404H4.80135C4.97115 19.8398 5.13495 19.7732 5.24835 19.6574L12.0001 12.8972L18.7543 19.6592C18.8737 19.778 19.0333 19.844 19.2025 19.844C19.2862 19.8441 19.369 19.8277 19.4463 19.7957C19.5235 19.7638 19.5937 19.7169 19.6529 19.6578C19.712 19.5986 19.7589 19.5284 19.7908 19.4511C19.8228 19.3739 19.8392 19.2911 19.8391 19.2074C19.8391 19.0376 19.7731 18.8774 19.6531 18.7592L12.8995 11.9966Z" fill="black"/>
</svg>
