<svg width="24" height="24" viewBox="0 0 24 24" fill="none" xmlns="http://www.w3.org/2000/svg">
<path d="M19.887 12.5308L21.243 13.7383C21.4934 13.9473 21.6607 14.239 21.7147 14.5606C21.7686 14.8823 21.7056 15.2126 21.537 15.4918L19.902 18.2848C19.7752 18.4986 19.594 18.6751 19.377 18.7963C19.1575 18.9178 18.9109 18.9823 18.66 18.9838C18.5044 18.9848 18.3495 18.9615 18.201 18.9148L16.4655 18.3418C16.1615 18.5368 15.8455 18.7113 15.5175 18.8653L15.153 20.6248C15.0856 20.9485 14.9053 21.2377 14.6445 21.4408C14.3804 21.6476 14.0529 21.7568 13.7175 21.7498H10.332C9.99662 21.7568 9.66914 21.6476 9.405 21.4408C9.14472 21.2374 8.96506 20.9483 8.898 20.6248L8.532 18.8653C8.2083 18.7093 7.89424 18.5339 7.5915 18.3403L5.85 18.9148C5.70151 18.9615 5.54666 18.9848 5.391 18.9838C5.14059 18.982 4.89461 18.9176 4.6755 18.7963C4.45866 18.6755 4.27756 18.4996 4.1505 18.2863L2.457 15.4918C2.28095 15.2101 2.21367 14.8738 2.2678 14.5461C2.32192 14.2183 2.49372 13.9215 2.751 13.7113L4.1055 11.9998V11.4688L2.7495 10.2613C2.4991 10.0524 2.33179 9.76065 2.27786 9.43901C2.22393 9.11736 2.28695 8.78703 2.4555 8.50782L4.149 5.71482C4.27585 5.50102 4.45697 5.32456 4.674 5.20332C4.89311 5.08208 5.13909 5.01762 5.3895 5.01582C5.54375 5.00609 5.69858 5.02026 5.8485 5.05782L7.5555 5.65782C7.8605 5.46282 8.1765 5.28832 8.5035 5.13432L8.8695 3.37482C8.93656 3.05138 9.11622 2.76222 9.3765 2.55882C9.64064 2.35204 9.96812 2.24288 10.3035 2.24982H13.6605C13.9959 2.24288 14.3234 2.35204 14.5875 2.55882C14.85 2.76432 15.03 3.05382 15.0945 3.37482L15.4605 5.13432C15.7855 5.28932 16.099 5.46432 16.401 5.65932L18.144 5.08632C18.3375 5.02339 18.5419 5.0013 18.7443 5.02144C18.9467 5.04158 19.1427 5.10351 19.32 5.20332C19.5375 5.32632 19.7175 5.50332 19.845 5.71332L21.537 8.50782C21.7154 8.78716 21.7861 9.12187 21.7359 9.4495C21.6857 9.77713 21.5179 10.0753 21.264 10.2883L19.887 11.4613V12.5308Z" stroke="black" stroke-width="1.5"/>
<path d="M15.75 12C15.75 12.9946 15.3549 13.9484 14.6517 14.6517C13.9484 15.3549 12.9946 15.75 12 15.75C11.0054 15.75 10.0516 15.3549 9.34835 14.6517C8.64509 13.9484 8.25 12.9946 8.25 12C8.25 11.0054 8.64509 10.0516 9.34835 9.34835C10.0516 8.64509 11.0054 8.25 12 8.25C12.9946 8.25 13.9484 8.64509 14.6517 9.34835C15.3549 10.0516 15.75 11.0054 15.75 12Z" stroke="black" stroke-width="1.5"/>
</svg>
