<svg width="132" height="132" viewBox="0 0 132 132" fill="none" xmlns="http://www.w3.org/2000/svg">
<path d="M33.1934 23.2C33.1934 19.6991 34.5841 16.3417 37.0596 13.8662C39.5351 11.3907 42.8925 10 46.3934 10H76.661C79.2858 10.0023 81.8022 11.0469 83.657 12.904L109.496 38.7364C111.351 40.5923 112.393 43.1086 112.393 45.7324V102.4C112.393 105.901 111.003 109.258 108.527 111.734C106.052 114.209 102.694 115.6 99.1934 115.6H85.4324C84.9388 114.209 84.1405 112.946 83.096 111.904L80.192 109H99.1934C100.944 109 102.623 108.305 103.86 107.067C105.098 105.829 105.793 104.15 105.793 102.4V49.6H82.6934C80.0678 49.6 77.5496 48.557 75.693 46.7004C73.8364 44.8437 72.7934 42.3256 72.7934 39.7V16.6H46.3934C44.643 16.6 42.9642 17.2954 41.7265 18.5331C40.4887 19.7708 39.7934 21.4496 39.7934 23.2V56.3782C37.5427 56.6309 35.3283 57.1402 33.1934 57.8962V23.2ZM82.6934 43H104.427L79.3934 17.9662V39.7C79.3934 40.5752 79.7411 41.4146 80.3599 42.0335C80.9788 42.6523 81.8182 43 82.6934 43ZM43.0934 109C48.281 109 53.0726 107.284 56.927 104.4L73.757 121.23C74.0634 121.537 74.4272 121.78 74.8277 121.946C75.2282 122.113 75.6575 122.198 76.0911 122.199C76.5247 122.199 76.9541 122.114 77.3548 121.948C77.7555 121.782 78.1197 121.539 78.4265 121.233C78.7333 120.927 78.9768 120.563 79.143 120.162C79.3092 119.762 79.3949 119.333 79.3952 118.899C79.3955 118.465 79.3104 118.036 79.1448 117.635C78.9791 117.235 78.7362 116.87 78.4298 116.564L61.5998 99.7336C64.7151 95.5675 66.333 90.4719 66.1915 85.2718C66.05 80.0717 64.1575 75.0716 60.8203 71.081C57.4831 67.0905 52.8967 64.3432 47.8036 63.2839C42.7106 62.2247 37.4091 62.9156 32.7576 65.2446C28.1061 67.5737 24.3769 71.4046 22.1738 76.1171C19.9708 80.8296 19.4228 86.1478 20.6187 91.2105C21.8146 96.2732 24.6843 100.784 28.7632 104.013C32.8421 107.241 37.8914 108.999 43.0934 109ZM43.0934 102.4C38.7173 102.4 34.5205 100.662 31.4261 97.5673C28.3318 94.4729 26.5934 90.2761 26.5934 85.9C26.5934 81.5239 28.3318 77.3271 31.4261 74.2327C34.5205 71.1384 38.7173 69.4 43.0934 69.4C47.4695 69.4 51.6663 71.1384 54.7607 74.2327C57.855 77.3271 59.5934 81.5239 59.5934 85.9C59.5934 90.2761 57.855 94.4729 54.7607 97.5673C51.6663 100.662 47.4695 102.4 43.0934 102.4Z" fill="#FE7318"/>
</svg>
