<svg width="24" height="24" viewBox="0 0 24 24" fill="none" xmlns="http://www.w3.org/2000/svg">
<path d="M10 18C9.74512 18.0003 9.49997 18.0979 9.31463 18.2728C9.1293 18.4478 9.01777 18.687 9.00283 18.9414C8.98789 19.1958 9.07067 19.4464 9.23426 19.6418C9.39785 19.8373 9.6299 19.9629 9.883 19.993L10 20H20C20.2549 19.9997 20.5 19.9021 20.6854 19.7272C20.8707 19.5522 20.9822 19.313 20.9972 19.0586C21.0121 18.8042 20.9293 18.5536 20.7657 18.3582C20.6021 18.1627 20.3701 18.0371 20.117 18.007L20 18H10ZM4 13C3.73478 13 3.48043 13.1054 3.29289 13.2929C3.10536 13.4804 3 13.7348 3 14C3 14.2652 3.10536 14.5196 3.29289 14.7071C3.48043 14.8946 3.73478 15 4 15H20C20.2652 15 20.5196 14.8946 20.7071 14.7071C20.8946 14.5196 21 14.2652 21 14C21 13.7348 20.8946 13.4804 20.7071 13.2929C20.5196 13.1054 20.2652 13 20 13H4ZM10 8C9.74512 8.00028 9.49997 8.09788 9.31463 8.27285C9.1293 8.44782 9.01777 8.68695 9.00283 8.94139C8.98789 9.19584 9.07067 9.44638 9.23426 9.64183C9.39785 9.83729 9.6299 9.9629 9.883 9.993L10 10H20C20.2549 9.99972 20.5 9.90212 20.6854 9.72715C20.8707 9.55218 20.9822 9.31305 20.9972 9.05861C21.0121 8.80416 20.9293 8.55362 20.7657 8.35817C20.6021 8.16271 20.3701 8.0371 20.117 8.007L20 8H10ZM4 3C3.74512 3.00028 3.49997 3.09788 3.31463 3.27285C3.1293 3.44782 3.01777 3.68695 3.00283 3.94139C2.98789 4.19584 3.07067 4.44638 3.23426 4.64183C3.39785 4.83729 3.6299 4.9629 3.883 4.993L4 5H20C20.2549 4.99972 20.5 4.90212 20.6854 4.72715C20.8707 4.55218 20.9822 4.31305 20.9972 4.05861C21.0121 3.80416 20.9293 3.55362 20.7657 3.35817C20.6021 3.16271 20.3701 3.0371 20.117 3.007L20 3H4Z" fill="black"/>
</svg>
