<svg width="132" height="132" viewBox="0 0 132 132" fill="none" xmlns="http://www.w3.org/2000/svg">
<path d="M49 10C45.4991 10 42.1417 11.3907 39.6662 13.8662C37.1907 16.3417 35.8 19.6991 35.8 23.2V57.5662C37.9576 56.9562 40.167 56.5475 42.4 56.3452V23.2C42.4 21.4496 43.0954 19.7708 44.3331 18.5331C45.5708 17.2954 47.2496 16.6 49 16.6H75.4V39.7C75.4 42.3256 76.443 44.8438 78.2996 46.7004C80.1562 48.557 82.6744 49.6 85.3 49.6H108.4V102.4C108.4 104.15 107.705 105.829 106.467 107.067C105.229 108.305 103.55 109 101.8 109H78.04C76.8389 111.351 75.3849 113.564 73.7038 115.6H101.8C105.301 115.6 108.658 114.209 111.134 111.734C113.609 109.258 115 105.901 115 102.4V45.7324C114.998 43.1076 113.953 40.5912 112.096 38.7364L86.2636 12.8974C84.4077 11.0427 81.8914 10.0006 79.2676 10H49ZM107.034 43H85.3C84.4248 43 83.5854 42.6523 82.9665 42.0335C82.3477 41.4146 82 40.5752 82 39.7V17.9662L107.034 43ZM75.4 92.5C75.4 100.377 72.2709 107.931 66.7011 113.501C61.1312 119.071 53.5769 122.2 45.7 122.2C37.8231 122.2 30.2688 119.071 24.6989 113.501C19.1291 107.931 16 100.377 16 92.5C16 84.6231 19.1291 77.0688 24.6989 71.4989C30.2688 65.9291 37.8231 62.8 45.7 62.8C53.5769 62.8 61.1312 65.9291 66.7011 71.4989C72.2709 77.0688 75.4 84.6231 75.4 92.5ZM49 79.3C49 78.4248 48.6523 77.5854 48.0335 76.9665C47.4146 76.3477 46.5752 76 45.7 76C44.8248 76 43.9854 76.3477 43.3665 76.9665C42.7477 77.5854 42.4 78.4248 42.4 79.3V89.2H32.5C31.6248 89.2 30.7854 89.5477 30.1665 90.1665C29.5477 90.7854 29.2 91.6248 29.2 92.5C29.2 93.3752 29.5477 94.2146 30.1665 94.8335C30.7854 95.4523 31.6248 95.8 32.5 95.8H42.4V105.7C42.4 106.575 42.7477 107.415 43.3665 108.033C43.9854 108.652 44.8248 109 45.7 109C46.5752 109 47.4146 108.652 48.0335 108.033C48.6523 107.415 49 106.575 49 105.7V95.8H58.9C59.7752 95.8 60.6146 95.4523 61.2335 94.8335C61.8523 94.2146 62.2 93.3752 62.2 92.5C62.2 91.6248 61.8523 90.7854 61.2335 90.1665C60.6146 89.5477 59.7752 89.2 58.9 89.2H49V79.3Z" fill="#FE7318"/>
</svg>
