<svg width="24" height="24" viewBox="0 0 24 24" fill="none" xmlns="http://www.w3.org/2000/svg">
<path d="M20 12H10M20 18H10M20 6H10" stroke="black" stroke-width="2" stroke-linecap="round" stroke-linejoin="round"/>
<path fill-rule="evenodd" clip-rule="evenodd" d="M4.37039 8.13879V4.94878H4.32177L3.42833 5.62291V4.71672L4.37039 4H5.31245V8.13879H4.37039ZM3.08278 11.1761C3.08278 10.336 3.67403 9.7617 4.53988 9.7617C5.39653 9.7617 5.90632 10.2816 5.90632 10.9895C5.90632 11.4801 5.71187 11.8047 5.12193 12.401L4.39272 13.1382V13.1926H5.951V14.0136H3.13533V13.3101L4.45973 11.9706C4.91696 11.5036 4.99317 11.3244 4.99317 11.0821C4.99317 10.7957 4.81448 10.5563 4.49126 10.5563C4.14703 10.5563 3.94469 10.8177 3.94469 11.1761H3.08278ZM4.01826 18.123V17.4122H4.49389C4.8066 17.4122 5.00894 17.2095 5.00894 16.9113C5.00894 16.6293 4.81711 16.4237 4.49915 16.4237C4.16542 16.4237 3.96177 16.6205 3.94731 16.9569H3.08934C3.10248 16.1623 3.66483 15.6365 4.54513 15.6365C5.4123 15.6365 5.88661 16.1447 5.8853 16.7615C5.8853 17.2609 5.59625 17.5913 5.19157 17.6971V17.7514C5.72501 17.8351 6.03246 18.2053 6.03246 18.7501C6.03246 19.4904 5.40179 20 4.51097 20C3.63067 20 3.03285 19.4698 3 18.6547H3.8987C3.91184 18.9734 4.14177 19.1717 4.49915 19.1717C4.84207 19.1717 5.07594 18.9616 5.07594 18.6488C5.07594 18.3227 4.85521 18.1245 4.49389 18.1245L4.01826 18.123Z" fill="black"/>
</svg>
