<svg width="24" height="24" viewBox="0 0 24 24" fill="none" xmlns="http://www.w3.org/2000/svg">
<path fill-rule="evenodd" clip-rule="evenodd" d="M12.45 4.90305C12.3202 4.80569 12.1623 4.75305 12 4.75305C11.8377 4.75305 11.6798 4.80569 11.55 4.90305L5.05 9.77805C4.95685 9.84791 4.88125 9.9385 4.82918 10.0426C4.77711 10.1468 4.75 10.2616 4.75 10.3781V18.5001C4.75 18.9141 5.086 19.2501 5.5 19.2501H9V17.0001C9 16.2044 9.31607 15.4413 9.87868 14.8787C10.4413 14.3161 11.2044 14.0001 12 14.0001C12.7956 14.0001 13.5587 14.3161 14.1213 14.8787C14.6839 15.4413 15 16.2044 15 17.0001V19.2501H18.5C18.6989 19.2501 18.8897 19.171 19.0303 19.0304C19.171 18.8897 19.25 18.699 19.25 18.5001V10.3781C19.25 10.2616 19.2229 10.1468 19.1708 10.0426C19.1187 9.9385 19.0431 9.84791 18.95 9.77805L12.45 4.90305ZM10.65 3.70305C11.45 3.10305 12.55 3.10305 13.35 3.70305L19.85 8.57805C20.417 9.00305 20.75 9.67005 20.75 10.3781V18.5001C20.75 19.0968 20.5129 19.6691 20.091 20.091C19.669 20.513 19.0967 20.7501 18.5 20.7501H14.25C14.0511 20.7501 13.8603 20.671 13.7197 20.5304C13.579 20.3897 13.5 20.199 13.5 20.0001V17.0001C13.5 16.6022 13.342 16.2207 13.0607 15.9394C12.7794 15.6581 12.3978 15.5001 12 15.5001C11.6022 15.5001 11.2206 15.6581 10.9393 15.9394C10.658 16.2207 10.5 16.6022 10.5 17.0001V20.0001C10.5 20.199 10.421 20.3897 10.2803 20.5304C10.1397 20.671 9.94891 20.7501 9.75 20.7501H5.5C4.90326 20.7501 4.33097 20.513 3.90901 20.091C3.48705 19.6691 3.25 19.0968 3.25 18.5001V10.3781C3.25 9.67005 3.583 9.00305 4.15 8.57805L10.65 3.70305Z" fill="#FE7318"/>
</svg>
