<svg width="132" height="132" viewBox="0 0 132 132" fill="none" xmlns="http://www.w3.org/2000/svg">
<path d="M94.8859 68.6945C93.3239 81.702 84.8044 86.8995 81.1249 90.6725C77.4399 94.4565 78.0999 95.21 78.3474 100.759C78.3887 101.446 78.289 102.134 78.0544 102.78C77.8197 103.427 77.4552 104.019 76.9832 104.519C76.5112 105.019 75.9417 105.418 75.3099 105.69C74.6781 105.962 73.9973 106.101 73.3094 106.1H58.6904C58.003 106.099 57.3231 105.958 56.6921 105.685C56.0611 105.412 55.4923 105.014 55.0203 104.514C54.5484 104.014 54.1832 103.424 53.9471 102.778C53.7109 102.133 53.6088 101.446 53.6469 100.759C53.6469 95.3145 54.1529 94.0495 50.8749 90.6725C46.6949 86.4925 36.8609 80.591 36.8609 64.3605C36.8358 60.329 37.6461 56.336 39.2408 52.6332C40.8355 48.9304 43.18 45.5982 46.1265 42.8464C49.0729 40.0947 52.5575 37.9832 56.3605 36.645C60.1636 35.3069 64.2026 34.771 68.2229 35.0713C72.2433 35.3716 76.1579 36.5015 79.7199 38.3898C83.282 40.2781 86.4142 42.8838 88.9192 46.0427C91.4242 49.2016 93.2476 52.8452 94.2745 56.7438C95.3015 60.6424 95.5096 64.7115 94.8859 68.6945Z" stroke="#FE7318" stroke-width="7" stroke-linecap="round" stroke-linejoin="round"/>
<path d="M57.53 105.798V114.114C57.53 116.385 58.795 118.25 60.3515 118.25H71.643C73.2105 118.25 74.47 116.38 74.47 114.114V105.798M61.71 47.8277C58.4625 47.8292 55.3484 49.1203 53.0526 51.4172C50.7567 53.7141 49.467 56.8287 49.467 60.0762M106.326 65.4717H116.413M96.173 32.4057L103.329 25.2502M101.673 93.4997L108.829 100.65M66 13.0732V21.2297M28.82 25.2447L35.926 32.4057M23.32 100.65L30.426 93.4997M25.674 65.4717H15.5925" stroke="#FE7318" stroke-width="7" stroke-linecap="round" stroke-linejoin="round"/>
</svg>
