<svg width="24" height="24" viewBox="0 0 24 24" fill="none" xmlns="http://www.w3.org/2000/svg">
<path d="M18.0001 19C18.255 19.0003 18.5001 19.0979 18.6855 19.2728C18.8708 19.4478 18.9823 19.687 18.9973 19.9414C19.0122 20.1958 18.9294 20.4464 18.7658 20.6418C18.6023 20.8373 18.3702 20.9629 18.1171 20.993L18.0001 21H6.00011C5.74523 20.9997 5.50008 20.9021 5.31474 20.7272C5.12941 20.5522 5.01788 20.313 5.00294 20.0586C4.988 19.8042 5.07079 19.5536 5.23438 19.3582C5.39797 19.1627 5.63002 19.0371 5.88311 19.007L6.00011 19H18.0001ZM17.0001 3C17.245 3.00003 17.4814 3.08996 17.6645 3.25272C17.8475 3.41547 17.9645 3.63975 17.9931 3.883L18.0001 4V12C18.0017 13.5729 17.3856 15.0834 16.2845 16.2065C15.1833 17.3297 13.6852 17.9755 12.1126 18.005C10.5401 18.0345 9.01877 17.4453 7.8763 16.3643C6.73382 15.2832 6.06151 13.7968 6.00411 12.225L6.00011 12V4C6.0004 3.74512 6.09799 3.49997 6.27296 3.31463C6.44793 3.1293 6.68707 3.01777 6.94151 3.00283C7.19595 2.98789 7.44649 3.07067 7.64194 3.23426C7.8374 3.39786 7.96301 3.6299 7.99311 3.883L8.00011 4V12C8.0001 13.0436 8.4079 14.0458 9.13652 14.7929C9.86513 15.54 10.8569 15.9727 11.9001 15.9988C12.9433 16.0249 13.9554 15.6423 14.7205 14.9326C15.4855 14.2228 15.943 13.2422 15.9951 12.2L16.0001 12V4C16.0001 3.73478 16.1055 3.48043 16.293 3.29289C16.4805 3.10536 16.7349 3 17.0001 3Z" fill="black"/>
</svg>
