<svg width="24" height="24" viewBox="0 0 24 24" fill="none" xmlns="http://www.w3.org/2000/svg">
<path d="M0.5 10.1651C0.5 5.24928 5.58916 1.26367 11.8684 1.26367C18.1468 1.26367 23.2368 5.24887 23.2368 10.1642C23.2368 15.0804 18.1468 19.066 11.8684 19.066C11.1867 19.066 10.5203 19.0188 9.87157 18.9293L9.86761 18.9285C8.53967 18.5099 8.36172 19.9942 5.13754 21.3918C4.41881 21.5618 4.21418 21.5391 4.39163 20.6303C5.1112 18.9619 6.13574 17.7948 4.18252 16.7236C4.15171 16.7072 5.2841 17.2091 4.18252 16.7236C1.83666 15.0932 0.5 12.8135 0.5 10.1651Z" fill="black"/>
</svg>
