<svg width="24" height="24" viewBox="0 0 24 24" fill="none" xmlns="http://www.w3.org/2000/svg">
<path d="M17.398 9.23008L18.87 7.75808C20.749 8.84208 22 10.3401 22 12.0001C22 15.3141 17.042 17.9931 12 18.0001C10.974 18 9.95075 17.8928 8.947 17.6801L10.694 15.9341C11.12 15.9781 11.556 16.0011 11.997 16.0001H11.999C11.584 16.0001 11.184 15.9371 10.808 15.8201L12.789 13.8381C13.259 13.6361 13.636 13.2591 13.839 12.7891L15.819 10.8081C16.0054 11.4052 16.0492 12.0377 15.9468 12.6548C15.8444 13.2719 15.5987 13.8564 15.2295 14.3614C14.8602 14.8663 14.3777 15.2776 13.8206 15.5622C13.2636 15.8468 12.6475 15.9968 12.022 16.0001C16.267 15.9851 20 13.8161 20 12.0001C20 11.0571 18.978 10.0141 17.398 9.23008ZM8.096 12.8751C7.96495 12.2905 7.96688 11.6839 8.10166 11.1002C8.23644 10.5164 8.50063 9.97043 8.87471 9.50247C9.24879 9.03451 9.72321 8.65656 10.2629 8.39652C10.8027 8.13648 11.3939 8.001 11.993 8.00008C7.775 7.98508 4 10.1781 4 12.0001C4 12.8961 4.904 13.8771 6.327 14.6441L4.869 16.1001C3.134 15.0281 2 13.5851 2 12.0001C2 8.68608 6.984 5.98308 12 6.00008C12.914 6.00308 13.827 6.09408 14.709 6.26208L12.932 8.03808C12.642 8.01608 12.348 8.00308 12.052 8.00008C12.334 8.00408 12.609 8.03708 12.875 8.09608L8.095 12.8751H8.096ZM21.092 2.70708C21.2795 2.89461 21.3848 3.14892 21.3848 3.41408C21.3848 3.67925 21.2795 3.93355 21.092 4.12108L4.122 21.0911C4.02982 21.1867 3.91953 21.2629 3.79756 21.3154C3.6756 21.3679 3.5444 21.3956 3.41162 21.3968C3.27884 21.3981 3.14715 21.3729 3.02422 21.3227C2.90129 21.2725 2.78958 21.1983 2.69562 21.1045C2.60167 21.0106 2.52733 20.8991 2.47697 20.7762C2.4266 20.6533 2.4012 20.5217 2.40226 20.3889C2.40332 20.2561 2.43081 20.1249 2.48313 20.0028C2.53546 19.8808 2.61156 19.7704 2.707 19.6781L19.677 2.70808C19.7699 2.61511 19.8802 2.54135 20.0016 2.49102C20.123 2.4407 20.2531 2.41479 20.3845 2.41479C20.5159 2.41479 20.646 2.4407 20.7674 2.49102C20.8888 2.54135 20.9991 2.61511 21.092 2.70808V2.70708Z" fill="#878D96"/>
</svg>
