<svg width="93" height="106" viewBox="0 0 93 106" fill="none" xmlns="http://www.w3.org/2000/svg">
<path d="M49.5 39.6H79.2V35.7324C79.2003 34.8173 79.0737 33.9067 78.8238 33.0264L78.8172 33C78.3535 31.3888 77.4883 29.9217 76.3026 28.7364L50.4636 2.8974C48.6077 1.04268 46.0914 0.000560217 43.4676 0H13.2C9.69914 0 6.34167 1.39071 3.86619 3.86619C1.39071 6.34167 0 9.69914 0 13.2V92.4C0 95.9009 1.39071 99.2583 3.86619 101.734C6.34167 104.209 9.69914 105.6 13.2 105.6H27.8586L27.7728 105.428C26.7462 103.448 26.2784 101.226 26.4198 99H13.2C11.4496 99 9.77084 98.3046 8.5331 97.0669C7.29536 95.8292 6.6 94.1504 6.6 92.4V13.2C6.6 11.4496 7.29536 9.77083 8.5331 8.53309C9.77084 7.29535 11.4496 6.6 13.2 6.6H39.6V29.7C39.6 32.3256 40.643 34.8437 42.4996 36.7004C44.3563 38.557 46.8744 39.6 49.5 39.6ZM49.5 33C48.6248 33 47.7854 32.6523 47.1665 32.0335C46.5477 31.4146 46.2 30.5752 46.2 29.7V7.9662L71.2338 33H49.5ZM71.346 49.8168C72.489 48.6564 73.8504 47.7337 75.3517 47.1019C76.853 46.4702 78.4645 46.1418 80.0933 46.1358C81.7221 46.1298 83.336 46.4463 84.8419 47.067C86.3479 47.6877 87.716 48.6003 88.8676 49.7523C90.0191 50.9042 90.9312 52.2727 91.5513 53.7789C92.1715 55.285 92.4873 56.899 92.4807 58.5278C92.4741 60.1567 92.1451 61.768 91.5128 63.2691C90.8804 64.7702 89.9573 66.1312 88.7964 67.2738L56.9184 99.1452C55.0608 101.002 52.7341 102.321 50.1864 102.96L40.2996 105.428C39.3165 105.673 38.2868 105.66 37.3104 105.389C36.3341 105.119 35.4443 104.6 34.7276 103.884C34.0108 103.168 33.4915 102.279 33.22 101.303C32.9485 100.327 32.9341 99.2969 33.1782 98.3136L35.6532 88.4268C36.2925 85.8791 37.6109 83.5524 39.468 81.6948L71.346 49.8168Z" fill="#FE7318"/>
</svg>
