<svg width="4" height="6" viewBox="0 0 4 6" fill="none" xmlns="http://www.w3.org/2000/svg">
<path d="M1.25897 3L3.84077 0.773376C3.89058 0.731881 3.93032 0.682245 3.95765 0.627365C3.98499 0.572485 3.99938 0.513459 3.99998 0.453732C4.00058 0.394004 3.98739 0.334772 3.96116 0.27949C3.93493 0.224209 3.89621 0.173985 3.84723 0.13175C3.79826 0.0895147 3.74003 0.0561142 3.67593 0.0334964C3.61183 0.010879 3.54315 -0.00050211 3.47389 1.66893e-05C3.40464 0.000535965 3.3362 0.0129447 3.27256 0.0365195C3.20893 0.0600944 3.15138 0.0943627 3.10326 0.137325L0.15271 2.68198C0.05493 2.76633 0 2.88072 0 3C0 3.11928 0.05493 3.23367 0.15271 3.31803L3.10326 5.86267C3.15138 5.90564 3.20893 5.93991 3.27256 5.96348C3.3362 5.98706 3.40464 5.99946 3.47389 5.99998C3.54315 6.0005 3.61183 5.98912 3.67593 5.9665C3.74003 5.94389 3.79826 5.91048 3.84723 5.86825C3.89621 5.82601 3.93493 5.77579 3.96116 5.72051C3.98739 5.66523 4.00058 5.606 3.99998 5.54627C3.99938 5.48654 3.98499 5.42752 3.95765 5.37264C3.93032 5.31775 3.89058 5.26812 3.84077 5.22662L1.25897 3Z" fill="#C8CDD5"/>
</svg>
