<svg width="24" height="24" viewBox="0 0 24 24" fill="none" xmlns="http://www.w3.org/2000/svg">
<path d="M12.8995 11.9962L19.6531 5.23595C19.7723 5.11621 19.8391 4.95414 19.839 4.78523C19.8389 4.61631 19.7719 4.45433 19.6525 4.33475C19.4137 4.09715 18.9931 4.09595 18.7519 4.33595L12.0001 11.0961L5.24595 4.33415C5.00595 4.09715 4.58535 4.09835 4.34655 4.33535C4.28727 4.39439 4.24035 4.46464 4.20852 4.542C4.17669 4.61937 4.16058 4.70229 4.16115 4.78595C4.16115 4.95635 4.22715 5.11595 4.34655 5.23415L11.1001 11.9956L4.34715 18.7576C4.22798 18.8775 4.16124 19.0398 4.16158 19.2088C4.16192 19.3779 4.2293 19.5399 4.34895 19.6594C4.46475 19.7739 4.62855 19.84 4.79775 19.84H4.80135C4.97115 19.8394 5.13495 19.7728 5.24835 19.657L12.0001 12.8968L18.7543 19.6588C18.8737 19.7776 19.0333 19.8436 19.2025 19.8436C19.2862 19.8436 19.369 19.8272 19.4463 19.7953C19.5235 19.7633 19.5937 19.7164 19.6529 19.6573C19.712 19.5981 19.7589 19.5279 19.7908 19.4507C19.8228 19.3734 19.8392 19.2906 19.8391 19.207C19.8391 19.0372 19.7731 18.877 19.6531 18.7587L12.8995 11.9962Z" fill="black"/>
</svg>
