<svg width="24" height="24" viewBox="0 0 24 24" fill="none" xmlns="http://www.w3.org/2000/svg">
<mask id="mask0_1976_1723" style="mask-type:luminance" maskUnits="userSpaceOnUse" x="0" y="0" width="24" height="24">
<path d="M24 0H0V24H24V0Z" fill="white"/>
</mask>
<g mask="url(#mask0_1976_1723)">
<path d="M24 12.273C24 11.422 23.9221 10.6039 23.7774 9.81836H12.2449V14.4602H18.8348C18.551 15.9602 17.6883 17.2311 16.3915 18.082V21.093H20.3488C22.6642 19.0039 24 15.9274 24 12.273Z" fill="#4285F4"/>
<path d="M12.2449 23.9993C15.551 23.9993 18.3228 22.9247 20.3487 21.0921L16.3914 18.0811C15.295 18.8011 13.8923 19.2265 12.2449 19.2265C9.05559 19.2265 6.3562 17.1156 5.39327 14.2793H1.30237V17.3884C3.31727 21.3102 7.45825 23.9993 12.2449 23.9993Z" fill="#34A853"/>
<path d="M5.39326 14.2804C5.14837 13.5604 5.00927 12.7913 5.00927 12.0004C5.00927 11.2095 5.14837 10.4404 5.39326 9.72041V6.61133H1.30237C0.473142 8.23133 0 10.0641 0 12.0004C0 13.9367 0.473142 15.7695 1.30237 17.3895L5.39326 14.2804Z" fill="#FBBC04"/>
<path d="M12.2449 4.77276C14.0426 4.77276 15.6567 5.37816 16.9258 6.56724L20.4378 3.1254C18.3173 1.18908 15.5454 0 12.2449 0C7.45825 0 3.31727 2.68908 1.30237 6.61092L5.39327 9.72C6.3562 6.88368 9.05559 4.77276 12.2449 4.77276Z" fill="#E94235"/>
</g>
</svg>
