<svg width="18" height="22" viewBox="0 0 18 22" fill="none" xmlns="http://www.w3.org/2000/svg">
<path d="M11.75 17.75C11.75 18.5457 11.4339 19.3087 10.8713 19.8713C10.3087 20.4339 9.54561 20.75 8.74996 20.75C7.95431 20.75 7.19125 20.4339 6.62864 19.8713C6.06603 19.3087 5.74996 18.5457 5.74996 17.75M9.47096 3.75302L8.00496 3.75002C4.66096 3.74202 1.75796 6.45902 1.73496 9.75002V13.54C1.73496 14.33 1.63496 15.101 1.20396 15.758L0.916957 16.196C0.479957 16.86 0.949958 17.75 1.73496 17.75H15.765C16.55 17.75 17.019 16.86 16.583 16.196L16.296 15.758C15.866 15.101 15.765 14.329 15.765 13.539V9.75102C15.725 6.45902 12.815 3.76102 9.47096 3.75302Z" stroke="black" stroke-width="1.5" stroke-linecap="round" stroke-linejoin="round"/>
<path d="M8.74995 0.75C9.28039 0.75 9.78909 0.960714 10.1642 1.33579C10.5392 1.71086 10.75 2.21957 10.75 2.75V3.75H6.74995V2.75C6.74995 2.21957 6.96067 1.71086 7.33574 1.33579C7.71081 0.960714 8.21952 0.75 8.74995 0.75Z" stroke="black" stroke-width="1.5" stroke-linecap="round" stroke-linejoin="round"/>
</svg>
