<svg width="4" height="6" viewBox="0 0 4 6" fill="none" xmlns="http://www.w3.org/2000/svg">
<path d="M2.74103 3L0.159231 0.773376C0.109415 0.731881 0.0696803 0.682245 0.042345 0.627365C0.0150098 0.572485 0.000621495 0.513459 1.9693e-05 0.453732C-0.000582109 0.394004 0.0126146 0.334772 0.0388399 0.27949C0.0650652 0.224209 0.103794 0.173985 0.152766 0.13175C0.201738 0.0895147 0.259973 0.0561142 0.324073 0.0334964C0.388172 0.010879 0.456853 -0.00050211 0.526107 1.66893e-05C0.595362 0.000535965 0.663803 0.0129447 0.727437 0.0365195C0.791072 0.0600944 0.848625 0.0943627 0.896738 0.137325L3.84729 2.68198C3.94507 2.76633 4 2.88072 4 3C4 3.11928 3.94507 3.23367 3.84729 3.31803L0.896738 5.86267C0.848625 5.90564 0.791072 5.93991 0.727437 5.96348C0.663803 5.98706 0.595362 5.99946 0.526107 5.99998C0.456853 6.0005 0.388172 5.98912 0.324073 5.9665C0.259973 5.94389 0.201738 5.91048 0.152766 5.86825C0.103794 5.82601 0.0650652 5.77579 0.0388399 5.72051C0.0126146 5.66523 -0.000582109 5.606 1.9693e-05 5.54627C0.000621495 5.48654 0.0150098 5.42752 0.042345 5.37264C0.0696803 5.31775 0.109415 5.26812 0.159231 5.22662L2.74103 3Z" fill="#C8CDD5"/>
</svg>
